<svg xmlns="http://www.w3.org/2000/svg" viewBox="0 0 1024 1024"><g fill="#2e8555"><path d="M512 223a231 231 0 0 0-231 230 231 231 0 0 0 36 123h-1l196 313 195-313a231 231 0 0 0 36-123 231 231 0 0 0-231-230zm0 130a102 102 0 0 1 102 102 102 102 0 0 1-102 102 102 102 0 0 1-102-102 102 102 0 0 1 102-102zM512 0c-30 0-74 45-79 71s12 105 41 121c10 4 31-5 38-4 7-1 27 8 38 4 29-16 46-96 41-121S542 0 512 0zM254 328l11 30s-3 45-33 94C202 489 64 634 64 634s-14-70-5-111 21-78 63-126 132-69 132-69zM619 793l61-97s80 51 74 149-113 179-113 179-20-136-29-153c-5-37-1-52 7-78zM770 328l-11 30s3 45 33 94c29 37 168 182 168 182s14-70 5-111-21-78-63-126-132-69-132-69zM404 793l-61-97s-80 51-74 149 113 179 113 179 20-136 29-153c5-37 1-52-7-78z"/></g></svg>